<?xml version="1.0" encoding="utf-8"?>
<!-- Generator: Adobe Illustrator 19.2.1, SVG Export Plug-In . SVG Version: 6.00 Build 0)  -->
<svg version="1.1" id="layer" xmlns="http://www.w3.org/2000/svg" xmlns:xlink="http://www.w3.org/1999/xlink" x="0px" y="0px"
	 viewBox="0 0 652 652" style="enable-background:new 0 0 652 652;" xml:space="preserve">
<style type="text/css">
	.st0{fill:none;stroke:#54585A;stroke-width:2.3341;}
	.st1{fill:none;stroke:#54585A;stroke-width:3.4326;}
	.st2{fill:#54585A;}
</style>
<circle class="st0" cx="70.8" cy="322" r="49.4"/>
<circle class="st1" cx="70.8" cy="322" r="41.2"/>
<g>
	<g>
		<g transform="matrix(1.333 0 0 -1.333 0 73.8)">
			<g>
				<path class="st2" d="M25.9-186.1c16.8,1.1,26.1,10.5,27.2,27.2C38.1-158.9,25.9-171.1,25.9-186.1"/>
				<path class="st2" d="M80.3-186.1c-16.8,1.1-26.1,10.5-27.2,27.2C68.2-158.9,80.3-171.1,80.3-186.1"/>
				<path class="st2" d="M25.9-186.1c16.8-1.1,26.1-10.5,27.2-27.2C38.1-213.3,25.9-201.1,25.9-186.1"/>
				<path class="st2" d="M80.3-186.1c-16.8-1.1-26.1-10.5-27.2-27.2C68.2-213.3,80.3-201.1,80.3-186.1"/>
			</g>
			<path class="st2" d="M113.5-171h8v-5.3c2.3,3.1,5.3,6,10.6,6c5,0,8.5-2.4,10.3-6.1c2.8,3.7,6.5,6.2,11.8,6.2
				c7.6,0,12.2-4.8,12.2-13.3v-22.2h-8v19.8c0,5.5-2.6,8.5-7.1,8.5c-4.4,0-7.4-3-7.4-8.7v-19.6h-8v19.8c0,5.4-2.6,8.4-7.1,8.4
				s-7.4-3.3-7.4-8.7v-19.6h-8L113.5-171z"/>
			<path class="st2" d="M217.2-171h8v-7.8c2.2,5.2,6.2,8.7,12.4,8.5v-8.4H237c-7,0-11.8-4.5-11.8-13.8v-13.2h-8L217.2-171z"/>
			<path class="st2" d="M200.6-186c-0.5,5.1-3.6,9.2-8.8,9.2c-4.9,0-8.3-3.8-9-9.2H200.6z M174.8-188.6v0.1c0,9.9,7,18.1,17,18.1
				c11.1,0,16.7-8.7,16.7-18.7c0-0.7-0.1-1.4-0.1-2.2h-25.6c0.9-5.7,4.9-8.8,10-8.8c3.9,0,6.7,1.4,9.4,4.1l4.7-4.1
				c-3.3-4-7.8-6.5-14.2-6.5C182.6-206.6,174.8-199.3,174.8-188.6"/>
			<path class="st2" d="M245.1-171h8v-7.8c2.2,5.2,6.2,8.7,12.4,8.5v-8.4h-0.5c-7,0-11.9-4.5-11.9-13.8v-13.2h-8L245.1-171z"/>
			<path class="st2" d="M294.1-196.2v18.3h-4.4v6.9h4.4v9.5h8v-9.5h9.3v-6.9h-9.3V-195c0-3.1,1.6-4.4,4.3-4.4c1.8,0,3.3,0.4,4.9,1.2
				v-6.5c-2-1.1-4.2-1.8-7.2-1.8C298.3-206.4,294.1-203.8,294.1-196.2"/>
			<path class="st2" d="M273.4-171h8v-34.8h-8V-171z M273.1-158.1h8.6v-7.6h-8.6V-158.1z"/>
			<path class="st2" d="M320.2-157.7h8v-18.7c2.2,3.3,5.5,6.2,10.9,6.2c7.8,0,12.4-5.3,12.4-13.4v-22.1h-8v19.8
				c0,5.4-2.7,8.5-7.4,8.5c-4.6,0-7.8-3.2-7.8-8.7v-19.6h-8V-157.7z"/>
			<path class="st2" d="M397.6-171h8.2l7-23.8l7.7,24h6.8l7.8-24l7.1,23.8h8l-11.4-35.1h-7.1l-7.8,23.8l-7.8-23.8h-7.1L397.6-171z"
				/>
			<path class="st2" d="M385.5-186c-0.5,5.1-3.6,9.2-8.8,9.2c-4.9,0-8.3-3.8-9-9.2H385.5z M359.8-188.6v0.1c0,9.9,7.1,18.1,17,18.1
				c11.1,0,16.7-8.7,16.7-18.7c0-0.7-0.1-1.4-0.1-2.2h-25.6c0.9-5.7,4.9-8.8,10-8.8c3.9,0,6.7,1.4,9.4,4.1l4.7-4.1
				c-3.3-4-7.8-6.5-14.2-6.5C367.5-206.6,359.8-199.3,359.8-188.6"/>
			<path class="st2" d="M458.3-197.9h1.9l2.1-3.3l2.1,3.3h1.8v-7.9h-1.7v5.4l-2.2-3.5h-0.1l-2.2,3.5v-5.4h-1.7L458.3-197.9z
				 M452.5-199.5h-2.4v1.6h6.5v-1.6h-2.4v-6.3h-1.8V-199.5z"/>
		</g>
	</g>
</g>
</svg>
